<?xml version="1.0" encoding="UTF-8" standalone="no"?>
<svg
   xmlns:dc="http://purl.org/dc/elements/1.1/"
   xmlns:cc="http://creativecommons.org/ns#"
   xmlns:rdf="http://www.w3.org/1999/02/22-rdf-syntax-ns#"
   xmlns:svg="http://www.w3.org/2000/svg"
   xmlns="http://www.w3.org/2000/svg"
   xmlns:sodipodi="http://sodipodi.sourceforge.net/DTD/sodipodi-0.dtd"
   xmlns:inkscape="http://www.inkscape.org/namespaces/inkscape"
   width="79pt"
   height="138pt"
   viewBox="0 0 79 138"
   version="1.1"
   id="svg2"
   inkscape:version="0.91 r13725"
   sodipodi:docname="seed.svg">
  <metadata
     id="metadata20">
    <rdf:RDF>
      <cc:Work
         rdf:about="">
        <dc:format>image/svg+xml</dc:format>
        <dc:type
           rdf:resource="http://purl.org/dc/dcmitype/StillImage" />
      </cc:Work>
    </rdf:RDF>
  </metadata>
  <defs
     id="defs18" />
  <sodipodi:namedview
     pagecolor="#f1f1f1"
     bordercolor="#f1f1f1"
     borderopacity="1"
     objecttolerance="10"
     gridtolerance="10"
     guidetolerance="10"
     inkscape:pageopacity="0"
     inkscape:pageshadow="2"
     inkscape:window-width="1536"
     inkscape:window-height="803"
     id="namedview16"
     showgrid="false"
     inkscape:zoom="1.3681159"
     inkscape:cx="49.375"
     inkscape:cy="86.25"
     inkscape:window-x="-8"
     inkscape:window-y="-8"
     inkscape:window-maximized="1"
     inkscape:current-layer="svg2" />
  <path
     d="m 2.3389831,3.5084746 75.3177969,0 0,131.5677954 -75.3177969,0 0,-82.477753 c 4.8622881,5.18644 11.5932199,10.048729 19.0773309,9.019068 6.1875,-1.258475 11.402542,-5.28178 15.521186,-9.905721 -2.488348,-2.192796 -4.633475,-4.805085 -7.445975,-6.597457 -5.205508,-3.308263 -12.165254,-3.746822 -17.60911,-0.772246 -3.5561438,1.916313 -6.9502116,4.290254 -9.5434319,7.417373 l 0,-48.2510594 z"
     id="path4"
     inkscape:connector-curvature="0"
     style="fill:#f1f1f1" />
  <path
     d="M 10.576271,31.576271 C 6.8771187,23.663135 6.6864407,14.74894 6.6673729,6.1875 15.400424,7.9608052 24.600636,8.9618642 32.370763,13.709746 c 2.574152,1.449152 4.690678,3.689618 6.044491,6.31144 1.630297,3.479873 1.029661,7.379238 1.125,11.097458 0.104873,2.831568 -0.762712,5.57733 -1.801907,8.170551 -0.03813,0.591101 -0.09534,1.773305 -0.133474,2.364407 -2.459746,0.896186 -5.052966,0.181144 -7.569915,0.08581 -1.773306,-0.171611 -3.661017,0.08581 -5.291314,-0.78178 -3.108051,-0.533903 -6.025424,-1.754242 -8.761653,-3.260598 -2.011652,-1.840043 -4.118644,-3.661017 -5.40572,-6.120763 z"
     id="path6"
     inkscape:connector-curvature="0"
     style="fill:#333333" />
  <path
     d="m 56.215042,24.635593 c 4.051907,-0.09534 8.103814,-1.697034 12.098517,-0.276483 -0.400423,3.136653 -1.334745,6.177966 -2.278601,9.190678 -1.754238,3.32733 -4.490467,6.092161 -7.770128,7.932203 -5.024364,2.288136 -10.534957,2.25 -15.931144,2.059322 -0.362288,-3.537076 0.95339,-6.835805 2.183263,-10.058262 1.773305,-3.270127 4.423729,-6.01589 7.932203,-7.398305 1.248941,-0.486229 2.536017,-0.905721 3.76589,-1.449153 z"
     id="path8"
     inkscape:connector-curvature="0"
     style="fill:#333333" />
  <path
     d="m 11.882415,44.342161 c 5.443856,-2.974576 12.403602,-2.536017 17.60911,0.772246 2.8125,1.792372 4.957627,4.404661 7.445975,6.597457 -4.118644,4.623941 -9.333686,8.647246 -15.521186,9.905721 C 13.932203,62.647246 7.2012712,57.784957 2.3389831,52.598517 l 0,-0.838983 c 2.5932203,-3.127119 5.9872881,-5.50106 9.5434319,-7.417373 z"
     id="path10"
     inkscape:connector-curvature="0"
     style="fill:#333333" />
  <path
     d="m 38.262712,45.162076 c 3.413135,0.257415 4.261652,3.966102 5.79661,6.387712 1.029661,2.192797 1.90678,4.45233 2.850636,6.683263 1.029661,2.879237 1.849576,5.825212 2.850635,8.713983 2.516949,9.34322 4.223517,19.029661 2.926907,28.725635 3.842161,0.943856 6.511652,4.366521 7.65572,7.989411 0.667373,5.02436 0.543432,10.30614 -1.935381,14.86334 -3.146187,5.31992 -7.894068,9.81038 -13.681144,12.11759 -4.242585,1.8019 -9.095339,2.23093 -13.290254,0.0286 -2.650424,-1.46822 -4.671611,-3.87076 -6.044492,-6.54026 -1.325212,-3.80402 -1.248941,-7.70339 0.01907,-11.51694 0.495763,-1.20128 0.943856,-2.42161 1.420551,-3.63242 4.404659,-8.28496 13.233049,-15.416312 23.110167,-13.938558 1.029661,-10.153602 -0.476695,-20.42161 -3.54661,-30.108051 -0.08581,-0.467161 -0.266949,-1.401483 -0.362288,-1.85911 -0.753178,-1.887712 -1.353814,-3.832627 -1.973517,-5.768008 -1.020127,-2.211865 -1.90678,-4.480933 -2.850636,-6.711865 -1.020127,-1.792373 -2.068856,-3.565678 -2.945974,-5.434322 z"
     id="path12"
     inkscape:connector-curvature="0"
     style="fill:#333333" />
  <path
     d="m 49.293432,100.23941 c 0.591102,-1.697039 0.848517,-3.775427 2.717161,-4.595342 -0.0572,6.835802 -3.727754,14.081562 -10.086864,17.084742 -2.583687,1.45869 -5.920551,2.00212 -7.579449,4.70975 -0.429026,1.46822 -0.78178,2.96504 -1.258475,4.42373 -0.457627,-1.92585 0.314619,-3.75636 0.819915,-5.58687 0.991526,-0.96292 1.983051,-1.97351 3.317797,-2.45021 4.986229,-2.09746 8.542373,-6.1875 11.269068,-10.73517 0.295551,-0.94385 0.5625,-1.88771 0.800847,-2.85063 z"
     id="path14"
     inkscape:connector-curvature="0"
     style="fill:#f1f1f1" />
</svg>
