<?xml version="1.0" encoding="iso-8859-1"?>
<!-- Generator: Adobe Illustrator 16.0.0, SVG Export Plug-In . SVG Version: 6.00 Build 0)  -->
<!DOCTYPE svg PUBLIC "-//W3C//DTD SVG 1.1//EN" "http://www.w3.org/Graphics/SVG/1.1/DTD/svg11.dtd">
<svg xmlns="http://www.w3.org/2000/svg" xmlns:xlink="http://www.w3.org/1999/xlink" version="1.1" id="Capa_1" x="0px" y="0px" width="512px" height="512px" viewBox="0 0 73.383 73.383" style="enable-background:new 0 0 73.383 73.383;" xml:space="preserve">
<g>
	<g>
		<g>
			<path d="M14.14,54.432c-4.704-1.344-7.169-6.271-5.825-11.199c1.344-4.928,6.272-8.064,10.752-6.721l14.336,3.809     c4.705,1.345,7.167,6.271,6.048,11.201c-0.448,1.566-1.12,2.91-2.24,4.031c0,0.672,1.567,2.912,3.584,3.584     s3.359,0.672,3.359,0.672c1.345-1.793,2.465-3.809,3.137-6.271c2.463-9.185-2.688-18.819-11.647-21.057l-14.336-3.809     C12.348,26.207,3.164,31.807,0.7,41.217c-2.464,9.408,2.688,18.814,11.648,21.057l14.336,3.808     c0.672,0.226,1.344,0.226,2.016,0.448c-2.464-2.688-4.256-5.823-4.928-9.407L14.14,54.432z" fill="#302d03"/>
			<path d="M61.179,39.424l-14.336-3.809c-0.673-0.225-1.345-0.225-2.017-0.447c2.464,2.688,4.256,5.824,4.928,9.408l9.408,2.466     c4.704,1.344,7.168,6.271,6.048,11.198c-1.344,4.929-6.271,8.062-10.752,6.722l-14.562-3.584     c-4.704-1.346-7.167-6.272-6.046-11.201c0.448-1.567,1.12-2.911,2.24-4.03c0-0.448-0.672-2.688-4.032-3.81     c-2.016-0.672-2.912-0.672-2.912-0.672c-1.344,1.793-2.464,4.03-3.136,6.271c-2.464,9.185,2.688,18.814,11.648,21.057     l14.336,3.81c8.96,2.464,18.144-3.137,20.607-12.545C75.292,51.297,69.915,41.889,61.179,39.424z" fill="#302d03"/>
			<path d="M39.451,31.584c0.896,0.447-8.064-9.633-8.064-19.265c1.792,8.288,11.2,16.576,12.767,21.28     C50.203,10.303,32.731,4.031,24.668,0C17.947,19.264,30.043,27.327,39.451,31.584z" fill="#302d03"/>
			<path d="M48.858,32.031c6.048,0.672,14.783,0,17.022-12.096c-5.376-0.225-16.353-2.24-19.937,11.646     c2.24-2.016,9.408-3.359,12.992-7.168C56.026,29.344,48.411,31.807,48.858,32.031z" fill="#302d03"/>
		</g>
	</g>
</g>
<g>
</g>
<g>
</g>
<g>
</g>
<g>
</g>
<g>
</g>
<g>
</g>
<g>
</g>
<g>
</g>
<g>
</g>
<g>
</g>
<g>
</g>
<g>
</g>
<g>
</g>
<g>
</g>
<g>
</g>
</svg>
